<svg width="24" height="24" viewBox="0 0 24 24" fill="none" xmlns="http://www.w3.org/2000/svg">
<path fill-rule="evenodd" clip-rule="evenodd" d="M3.75 13.0002C6.188 13.0002 8.41 15.2212 8.41 17.6602L8.41 18.6602L10.41 18.6602L10.41 17.6602C10.41 15.8862 9.632 14.2222 8.411 13.0002L20.75 13.0002L20.75 11.0002L8.411 11.0002C9.632 9.77819 10.41 8.11419 10.41 6.34019L10.41 5.34019L8.41 5.34019L8.41 6.34019C8.41 8.77919 6.188 11.0002 3.75 11.0002L2.75 11.0002L2.75 13.0002L3.75 13.0002Z" fill="black"/>
<path fill-rule="evenodd" clip-rule="evenodd" d="M3.75 13.0002C6.188 13.0002 8.41 15.2212 8.41 17.6602L8.41 18.6602L10.41 18.6602L10.41 17.6602C10.41 15.8862 9.632 14.2222 8.411 13.0002L20.75 13.0002L20.75 11.0002L8.411 11.0002C9.632 9.77819 10.41 8.11419 10.41 6.34019L10.41 5.34019L8.41 5.34019L8.41 6.34019C8.41 8.77919 6.188 11.0002 3.75 11.0002L2.75 11.0002L2.75 13.0002L3.75 13.0002Z" fill="black" fill-opacity="0.2"/>
<path fill-rule="evenodd" clip-rule="evenodd" d="M3.75 13.0002C6.188 13.0002 8.41 15.2212 8.41 17.6602L8.41 18.6602L10.41 18.6602L10.41 17.6602C10.41 15.8862 9.632 14.2222 8.411 13.0002L20.75 13.0002L20.75 11.0002L8.411 11.0002C9.632 9.77819 10.41 8.11419 10.41 6.34019L10.41 5.34019L8.41 5.34019L8.41 6.34019C8.41 8.77919 6.188 11.0002 3.75 11.0002L2.75 11.0002L2.75 13.0002L3.75 13.0002Z" fill="black" fill-opacity="0.2"/>
<path fill-rule="evenodd" clip-rule="evenodd" d="M3.75 13.0002C6.188 13.0002 8.41 15.2212 8.41 17.6602L8.41 18.6602L10.41 18.6602L10.41 17.6602C10.41 15.8862 9.632 14.2222 8.411 13.0002L20.75 13.0002L20.75 11.0002L8.411 11.0002C9.632 9.77819 10.41 8.11419 10.41 6.34019L10.41 5.34019L8.41 5.34019L8.41 6.34019C8.41 8.77919 6.188 11.0002 3.75 11.0002L2.75 11.0002L2.75 13.0002L3.75 13.0002Z" fill="black" fill-opacity="0.2"/>
<path fill-rule="evenodd" clip-rule="evenodd" d="M3.75 13.0002C6.188 13.0002 8.41 15.2212 8.41 17.6602L8.41 18.6602L10.41 18.6602L10.41 17.6602C10.41 15.8862 9.632 14.2222 8.411 13.0002L20.75 13.0002L20.75 11.0002L8.411 11.0002C9.632 9.77819 10.41 8.11419 10.41 6.34019L10.41 5.34019L8.41 5.34019L8.41 6.34019C8.41 8.77919 6.188 11.0002 3.75 11.0002L2.75 11.0002L2.75 13.0002L3.75 13.0002Z" fill="black" fill-opacity="0.2"/>
</svg>
