<svg width="24" height="24" viewBox="0 0 24 24" fill="none" xmlns="http://www.w3.org/2000/svg">
<path fill-rule="evenodd" clip-rule="evenodd" d="M17.2034 4.26316V2.66016C17.2034 2.24616 16.8674 1.91016 16.4534 1.91016C16.0394 1.91016 15.7034 2.24616 15.7034 2.66016V5.92316C15.7034 6.18316 15.8444 6.40216 16.0464 6.53616C15.9274 6.61616 15.7924 6.67316 15.6384 6.67316C15.2244 6.67316 14.8884 6.33716 14.8884 5.92316V3.75716C14.0864 3.66116 13.2124 3.61216 12.2494 3.61216C11.1154 3.61216 10.1044 3.68016 9.19534 3.81716V2.66016C9.19534 2.24616 8.85934 1.91016 8.44534 1.91016C8.03134 1.91016 7.69534 2.24616 7.69534 2.66016V5.92316C7.69534 6.18316 7.83634 6.40216 8.03834 6.53616C7.91934 6.61616 7.78434 6.67316 7.63034 6.67316C7.21634 6.67316 6.88034 6.33716 6.88034 5.92316V4.39316C4.74634 5.21616 3.49434 6.74716 2.90234 9.18516H21.5974C20.9694 6.59916 19.5814 5.04716 17.2034 4.26316Z" fill="#169B4C"/>
<path fill-rule="evenodd" clip-rule="evenodd" d="M16.6636 14.6216C16.2496 14.6216 15.9096 14.2856 15.9096 13.8716C15.9096 13.4576 16.2406 13.1216 16.6546 13.1216H16.6636C17.0776 13.1216 17.4136 13.4576 17.4136 13.8716C17.4136 14.2856 17.0776 14.6216 16.6636 14.6216ZM16.6636 18.4746C16.2496 18.4746 15.9096 18.1386 15.9096 17.7246C15.9096 17.3096 16.2406 16.9746 16.6546 16.9746H16.6636C17.0776 16.9746 17.4136 17.3096 17.4136 17.7246C17.4136 18.1386 17.0776 18.4746 16.6636 18.4746ZM12.2646 14.6216C11.8506 14.6216 11.5096 14.2856 11.5096 13.8716C11.5096 13.4576 11.8416 13.1216 12.2556 13.1216H12.2646C12.6786 13.1216 13.0146 13.4576 13.0146 13.8716C13.0146 14.2856 12.6786 14.6216 12.2646 14.6216ZM12.2646 18.4746C11.8506 18.4746 11.5096 18.1386 11.5096 17.7246C11.5096 17.3096 11.8416 16.9746 12.2556 16.9746H12.2646C12.6786 16.9746 13.0146 17.3096 13.0146 17.7246C13.0146 18.1386 12.6786 18.4746 12.2646 18.4746ZM7.85656 14.6216C7.44256 14.6216 7.10156 14.2856 7.10156 13.8716C7.10156 13.4576 7.43356 13.1216 7.84756 13.1216H7.85656C8.27056 13.1216 8.60656 13.4576 8.60656 13.8716C8.60656 14.2856 8.27056 14.6216 7.85656 14.6216ZM7.85656 18.4746C7.44256 18.4746 7.10156 18.1386 7.10156 17.7246C7.10156 17.3096 7.43356 16.9746 7.84756 16.9746H7.85656C8.27056 16.9746 8.60656 17.3096 8.60656 17.7246C8.60656 18.1386 8.27056 18.4746 7.85656 18.4746ZM21.8706 10.6846H2.63156C2.52956 11.5046 2.47656 12.3976 2.47656 13.3866C2.47656 20.6016 5.03456 23.1596 12.2506 23.1596C19.4676 23.1596 22.0256 20.6016 22.0256 13.3866C22.0256 12.3976 21.9726 11.5046 21.8706 10.6846Z" fill="#169B4C"/>
</svg>
