<svg width="26" height="26" viewBox="0 0 26 26" fill="none" xmlns="http://www.w3.org/2000/svg">
<g clip-path="url(#clip0_230_920)">
<path fill-rule="evenodd" clip-rule="evenodd" d="M19.6414 13.3135C18.4949 13.3135 17.4188 13.5471 16.5136 13.9433C19.6816 14.8678 21.9244 17.0824 21.9847 19.6728C23.6341 19.4595 25.4142 18.8297 25.4142 17.1128C25.4142 15.0506 22.7692 13.3135 19.6414 13.3135Z" fill="#169B4C"/>
<path fill-rule="evenodd" clip-rule="evenodd" d="M19.6108 11.8508H19.6309C21.7731 11.8508 23.523 10.0831 23.523 7.92948C23.523 5.76567 21.7731 3.99805 19.6309 3.99805C19.2085 3.99805 18.8062 4.06916 18.4241 4.19106C19.118 5.22725 19.5203 6.47678 19.5203 7.82789C19.5303 9.19932 19.1079 10.52 18.3134 11.6171C18.7258 11.7695 19.1582 11.8508 19.6108 11.8508Z" fill="#169B4C"/>
<path fill-rule="evenodd" clip-rule="evenodd" d="M9.73515 13.9332C8.83 13.5471 7.75389 13.3135 6.61743 13.3135C3.48966 13.3135 0.844635 15.0506 0.844635 17.1128C0.844635 18.8297 2.61469 19.4493 4.26406 19.6728C4.31435 17.0824 6.55709 14.8678 9.73515 13.9332Z" fill="#169B4C"/>
<path fill-rule="evenodd" clip-rule="evenodd" d="M6.61745 11.8508H6.64762C7.10019 11.8508 7.53265 11.7695 7.94499 11.6171C7.18065 10.5606 6.72808 9.25011 6.72808 7.82789C6.72808 6.47678 7.13036 5.22725 7.8243 4.19106C7.44213 4.06916 7.03985 3.99805 6.61745 3.99805C4.47528 3.99805 2.73539 5.76567 2.73539 7.92948C2.73539 10.0831 4.47528 11.8508 6.61745 11.8508Z" fill="#169B4C"/>
<path fill-rule="evenodd" clip-rule="evenodd" d="M13.124 14.9766C9.14038 14.9766 5.77425 17.1668 5.77425 19.7593C5.77425 23.1117 11.3057 23.1117 13.124 23.1117C16.2799 23.1117 20.4758 22.7663 20.4758 19.7806C20.4758 17.1759 17.1086 14.9766 13.124 14.9766Z" fill="#169B4C"/>
<path fill-rule="evenodd" clip-rule="evenodd" d="M13.125 12.771H13.1582C14.4606 12.767 15.6835 12.2499 16.6007 11.3163C17.519 10.3828 18.0218 9.14442 18.0168 7.83089C18.0168 5.10531 15.8233 2.88867 13.125 2.88867C10.4277 2.88867 8.23422 5.10531 8.23422 7.83089C8.23422 10.5545 10.4277 12.771 13.125 12.771Z" fill="#169B4C"/>
</g>
<defs>
<clipPath id="clip0_230_920">
<rect width="25.1429" height="24.381" fill="white" transform="translate(0.809525 0.80957)"/>
</clipPath>
</defs>
</svg>
