<svg width="24" height="25" viewBox="0 0 24 25" fill="none" xmlns="http://www.w3.org/2000/svg">
<path fill-rule="evenodd" clip-rule="evenodd" d="M10.7345 17.3481H4.26147C3.70947 17.3481 3.26147 17.7951 3.26147 18.3481C3.26147 18.9011 3.70947 19.3481 4.26147 19.3481H10.7345C11.2865 19.3481 11.7345 18.9011 11.7345 18.3481C11.7345 17.7951 11.2865 17.3481 10.7345 17.3481Z" fill="black"/>
<path fill-rule="evenodd" clip-rule="evenodd" d="M10.7345 17.3481H4.26147C3.70947 17.3481 3.26147 17.7951 3.26147 18.3481C3.26147 18.9011 3.70947 19.3481 4.26147 19.3481H10.7345C11.2865 19.3481 11.7345 18.9011 11.7345 18.3481C11.7345 17.7951 11.2865 17.3481 10.7345 17.3481Z" fill="black" fill-opacity="0.2"/>
<path fill-rule="evenodd" clip-rule="evenodd" d="M10.7345 17.3481H4.26147C3.70947 17.3481 3.26147 17.7951 3.26147 18.3481C3.26147 18.9011 3.70947 19.3481 4.26147 19.3481H10.7345C11.2865 19.3481 11.7345 18.9011 11.7345 18.3481C11.7345 17.7951 11.2865 17.3481 10.7345 17.3481Z" fill="black" fill-opacity="0.2"/>
<path fill-rule="evenodd" clip-rule="evenodd" d="M10.7345 17.3481H4.26147C3.70947 17.3481 3.26147 17.7951 3.26147 18.3481C3.26147 18.9011 3.70947 19.3481 4.26147 19.3481H10.7345C11.2865 19.3481 11.7345 18.9011 11.7345 18.3481C11.7345 17.7951 11.2865 17.3481 10.7345 17.3481Z" fill="black" fill-opacity="0.2"/>
<path fill-rule="evenodd" clip-rule="evenodd" d="M10.7345 17.3481H4.26147C3.70947 17.3481 3.26147 17.7951 3.26147 18.3481C3.26147 18.9011 3.70947 19.3481 4.26147 19.3481H10.7345C11.2865 19.3481 11.7345 18.9011 11.7345 18.3481C11.7345 17.7951 11.2865 17.3481 10.7345 17.3481Z" fill="black" fill-opacity="0.2"/>
<path fill-rule="evenodd" clip-rule="evenodd" d="M17.5172 15.1274C15.1992 15.1274 14.2952 16.0304 14.2952 18.3494C14.2952 20.6684 15.1992 21.5714 17.5172 21.5714C19.8362 21.5714 20.7392 20.6684 20.7392 18.3494C20.7392 16.0304 19.8362 15.1274 17.5172 15.1274Z" fill="black"/>
<path fill-rule="evenodd" clip-rule="evenodd" d="M17.5172 15.1274C15.1992 15.1274 14.2952 16.0304 14.2952 18.3494C14.2952 20.6684 15.1992 21.5714 17.5172 21.5714C19.8362 21.5714 20.7392 20.6684 20.7392 18.3494C20.7392 16.0304 19.8362 15.1274 17.5172 15.1274Z" fill="black" fill-opacity="0.2"/>
<path fill-rule="evenodd" clip-rule="evenodd" d="M17.5172 15.1274C15.1992 15.1274 14.2952 16.0304 14.2952 18.3494C14.2952 20.6684 15.1992 21.5714 17.5172 21.5714C19.8362 21.5714 20.7392 20.6684 20.7392 18.3494C20.7392 16.0304 19.8362 15.1274 17.5172 15.1274Z" fill="black" fill-opacity="0.2"/>
<path fill-rule="evenodd" clip-rule="evenodd" d="M17.5172 15.1274C15.1992 15.1274 14.2952 16.0304 14.2952 18.3494C14.2952 20.6684 15.1992 21.5714 17.5172 21.5714C19.8362 21.5714 20.7392 20.6684 20.7392 18.3494C20.7392 16.0304 19.8362 15.1274 17.5172 15.1274Z" fill="black" fill-opacity="0.2"/>
<path fill-rule="evenodd" clip-rule="evenodd" d="M17.5172 15.1274C15.1992 15.1274 14.2952 16.0304 14.2952 18.3494C14.2952 20.6684 15.1992 21.5714 17.5172 21.5714C19.8362 21.5714 20.7392 20.6684 20.7392 18.3494C20.7392 16.0304 19.8362 15.1274 17.5172 15.1274Z" fill="black" fill-opacity="0.2"/>
<path fill-rule="evenodd" clip-rule="evenodd" d="M20.2383 6.85895H13.7673C13.2153 6.85895 12.7673 7.30595 12.7673 7.85895C12.7673 8.41195 13.2153 8.85895 13.7673 8.85895H20.2383C20.7903 8.85895 21.2383 8.41195 21.2383 7.85895C21.2383 7.30595 20.7903 6.85895 20.2383 6.85895Z" fill="black"/>
<path fill-rule="evenodd" clip-rule="evenodd" d="M20.2383 6.85895H13.7673C13.2153 6.85895 12.7673 7.30595 12.7673 7.85895C12.7673 8.41195 13.2153 8.85895 13.7673 8.85895H20.2383C20.7903 8.85895 21.2383 8.41195 21.2383 7.85895C21.2383 7.30595 20.7903 6.85895 20.2383 6.85895Z" fill="black" fill-opacity="0.2"/>
<path fill-rule="evenodd" clip-rule="evenodd" d="M20.2383 6.85895H13.7673C13.2153 6.85895 12.7673 7.30595 12.7673 7.85895C12.7673 8.41195 13.2153 8.85895 13.7673 8.85895H20.2383C20.7903 8.85895 21.2383 8.41195 21.2383 7.85895C21.2383 7.30595 20.7903 6.85895 20.2383 6.85895Z" fill="black" fill-opacity="0.2"/>
<path fill-rule="evenodd" clip-rule="evenodd" d="M20.2383 6.85895H13.7673C13.2153 6.85895 12.7673 7.30595 12.7673 7.85895C12.7673 8.41195 13.2153 8.85895 13.7673 8.85895H20.2383C20.7903 8.85895 21.2383 8.41195 21.2383 7.85895C21.2383 7.30595 20.7903 6.85895 20.2383 6.85895Z" fill="black" fill-opacity="0.2"/>
<path fill-rule="evenodd" clip-rule="evenodd" d="M20.2383 6.85895H13.7673C13.2153 6.85895 12.7673 7.30595 12.7673 7.85895C12.7673 8.41195 13.2153 8.85895 13.7673 8.85895H20.2383C20.7903 8.85895 21.2383 8.41195 21.2383 7.85895C21.2383 7.30595 20.7903 6.85895 20.2383 6.85895Z" fill="black" fill-opacity="0.2"/>
<path fill-rule="evenodd" clip-rule="evenodd" d="M6.98347 11.0805C9.30247 11.0805 10.2054 10.1775 10.2054 7.85754C10.2054 5.53954 9.30247 4.63654 6.98347 4.63654C4.66447 4.63654 3.76147 5.53954 3.76147 7.85754C3.76147 10.1775 4.66447 11.0805 6.98347 11.0805Z" fill="black"/>
<path fill-rule="evenodd" clip-rule="evenodd" d="M6.98347 11.0805C9.30247 11.0805 10.2054 10.1775 10.2054 7.85754C10.2054 5.53954 9.30247 4.63654 6.98347 4.63654C4.66447 4.63654 3.76147 5.53954 3.76147 7.85754C3.76147 10.1775 4.66447 11.0805 6.98347 11.0805Z" fill="black" fill-opacity="0.2"/>
<path fill-rule="evenodd" clip-rule="evenodd" d="M6.98347 11.0805C9.30247 11.0805 10.2054 10.1775 10.2054 7.85754C10.2054 5.53954 9.30247 4.63654 6.98347 4.63654C4.66447 4.63654 3.76147 5.53954 3.76147 7.85754C3.76147 10.1775 4.66447 11.0805 6.98347 11.0805Z" fill="black" fill-opacity="0.2"/>
<path fill-rule="evenodd" clip-rule="evenodd" d="M6.98347 11.0805C9.30247 11.0805 10.2054 10.1775 10.2054 7.85754C10.2054 5.53954 9.30247 4.63654 6.98347 4.63654C4.66447 4.63654 3.76147 5.53954 3.76147 7.85754C3.76147 10.1775 4.66447 11.0805 6.98347 11.0805Z" fill="black" fill-opacity="0.2"/>
<path fill-rule="evenodd" clip-rule="evenodd" d="M6.98347 11.0805C9.30247 11.0805 10.2054 10.1775 10.2054 7.85754C10.2054 5.53954 9.30247 4.63654 6.98347 4.63654C4.66447 4.63654 3.76147 5.53954 3.76147 7.85754C3.76147 10.1775 4.66447 11.0805 6.98347 11.0805Z" fill="black" fill-opacity="0.2"/>
</svg>
