<svg width="24" height="24" viewBox="0 0 24 24" fill="none" xmlns="http://www.w3.org/2000/svg">
<path fill-rule="evenodd" clip-rule="evenodd" d="M10.7347 16.8477H4.26172C3.70972 16.8477 3.26172 17.2947 3.26172 17.8477C3.26172 18.4007 3.70972 18.8477 4.26172 18.8477H10.7347C11.2867 18.8477 11.7347 18.4007 11.7347 17.8477C11.7347 17.2947 11.2867 16.8477 10.7347 16.8477Z" fill="black"/>
<path fill-rule="evenodd" clip-rule="evenodd" d="M10.7347 16.8477H4.26172C3.70972 16.8477 3.26172 17.2947 3.26172 17.8477C3.26172 18.4007 3.70972 18.8477 4.26172 18.8477H10.7347C11.2867 18.8477 11.7347 18.4007 11.7347 17.8477C11.7347 17.2947 11.2867 16.8477 10.7347 16.8477Z" fill="black" fill-opacity="0.2"/>
<path fill-rule="evenodd" clip-rule="evenodd" d="M10.7347 16.8477H4.26172C3.70972 16.8477 3.26172 17.2947 3.26172 17.8477C3.26172 18.4007 3.70972 18.8477 4.26172 18.8477H10.7347C11.2867 18.8477 11.7347 18.4007 11.7347 17.8477C11.7347 17.2947 11.2867 16.8477 10.7347 16.8477Z" fill="black" fill-opacity="0.2"/>
<path fill-rule="evenodd" clip-rule="evenodd" d="M10.7347 16.8477H4.26172C3.70972 16.8477 3.26172 17.2947 3.26172 17.8477C3.26172 18.4007 3.70972 18.8477 4.26172 18.8477H10.7347C11.2867 18.8477 11.7347 18.4007 11.7347 17.8477C11.7347 17.2947 11.2867 16.8477 10.7347 16.8477Z" fill="black" fill-opacity="0.2"/>
<path fill-rule="evenodd" clip-rule="evenodd" d="M10.7347 16.8477H4.26172C3.70972 16.8477 3.26172 17.2947 3.26172 17.8477C3.26172 18.4007 3.70972 18.8477 4.26172 18.8477H10.7347C11.2867 18.8477 11.7347 18.4007 11.7347 17.8477C11.7347 17.2947 11.2867 16.8477 10.7347 16.8477Z" fill="black" fill-opacity="0.2"/>
<path fill-rule="evenodd" clip-rule="evenodd" d="M17.5169 14.627C15.1989 14.627 14.2949 15.53 14.2949 17.849C14.2949 20.168 15.1989 21.071 17.5169 21.071C19.8359 21.071 20.7389 20.168 20.7389 17.849C20.7389 15.53 19.8359 14.627 17.5169 14.627Z" fill="black"/>
<path fill-rule="evenodd" clip-rule="evenodd" d="M17.5169 14.627C15.1989 14.627 14.2949 15.53 14.2949 17.849C14.2949 20.168 15.1989 21.071 17.5169 21.071C19.8359 21.071 20.7389 20.168 20.7389 17.849C20.7389 15.53 19.8359 14.627 17.5169 14.627Z" fill="black" fill-opacity="0.2"/>
<path fill-rule="evenodd" clip-rule="evenodd" d="M17.5169 14.627C15.1989 14.627 14.2949 15.53 14.2949 17.849C14.2949 20.168 15.1989 21.071 17.5169 21.071C19.8359 21.071 20.7389 20.168 20.7389 17.849C20.7389 15.53 19.8359 14.627 17.5169 14.627Z" fill="black" fill-opacity="0.2"/>
<path fill-rule="evenodd" clip-rule="evenodd" d="M17.5169 14.627C15.1989 14.627 14.2949 15.53 14.2949 17.849C14.2949 20.168 15.1989 21.071 17.5169 21.071C19.8359 21.071 20.7389 20.168 20.7389 17.849C20.7389 15.53 19.8359 14.627 17.5169 14.627Z" fill="black" fill-opacity="0.2"/>
<path fill-rule="evenodd" clip-rule="evenodd" d="M17.5169 14.627C15.1989 14.627 14.2949 15.53 14.2949 17.849C14.2949 20.168 15.1989 21.071 17.5169 21.071C19.8359 21.071 20.7389 20.168 20.7389 17.849C20.7389 15.53 19.8359 14.627 17.5169 14.627Z" fill="black" fill-opacity="0.2"/>
<path fill-rule="evenodd" clip-rule="evenodd" d="M20.2386 6.35938H13.7676C13.2156 6.35938 12.7676 6.80638 12.7676 7.35938C12.7676 7.91237 13.2156 8.35937 13.7676 8.35937H20.2386C20.7906 8.35937 21.2386 7.91237 21.2386 7.35938C21.2386 6.80638 20.7906 6.35938 20.2386 6.35938Z" fill="black"/>
<path fill-rule="evenodd" clip-rule="evenodd" d="M20.2386 6.35938H13.7676C13.2156 6.35938 12.7676 6.80638 12.7676 7.35938C12.7676 7.91237 13.2156 8.35937 13.7676 8.35937H20.2386C20.7906 8.35937 21.2386 7.91237 21.2386 7.35938C21.2386 6.80638 20.7906 6.35938 20.2386 6.35938Z" fill="black" fill-opacity="0.2"/>
<path fill-rule="evenodd" clip-rule="evenodd" d="M20.2386 6.35938H13.7676C13.2156 6.35938 12.7676 6.80638 12.7676 7.35938C12.7676 7.91237 13.2156 8.35937 13.7676 8.35937H20.2386C20.7906 8.35937 21.2386 7.91237 21.2386 7.35938C21.2386 6.80638 20.7906 6.35938 20.2386 6.35938Z" fill="black" fill-opacity="0.2"/>
<path fill-rule="evenodd" clip-rule="evenodd" d="M20.2386 6.35938H13.7676C13.2156 6.35938 12.7676 6.80638 12.7676 7.35938C12.7676 7.91237 13.2156 8.35937 13.7676 8.35937H20.2386C20.7906 8.35937 21.2386 7.91237 21.2386 7.35938C21.2386 6.80638 20.7906 6.35938 20.2386 6.35938Z" fill="black" fill-opacity="0.2"/>
<path fill-rule="evenodd" clip-rule="evenodd" d="M20.2386 6.35938H13.7676C13.2156 6.35938 12.7676 6.80638 12.7676 7.35938C12.7676 7.91237 13.2156 8.35937 13.7676 8.35937H20.2386C20.7906 8.35937 21.2386 7.91237 21.2386 7.35938C21.2386 6.80638 20.7906 6.35938 20.2386 6.35938Z" fill="black" fill-opacity="0.2"/>
<path fill-rule="evenodd" clip-rule="evenodd" d="M6.98354 10.5807C9.30254 10.5807 10.2055 9.67772 10.2055 7.35772C10.2055 5.03972 9.30254 4.13672 6.98354 4.13672C4.66454 4.13672 3.76154 5.03972 3.76154 7.35772C3.76154 9.67772 4.66454 10.5807 6.98354 10.5807Z" fill="black"/>
<path fill-rule="evenodd" clip-rule="evenodd" d="M6.98354 10.5807C9.30254 10.5807 10.2055 9.67772 10.2055 7.35772C10.2055 5.03972 9.30254 4.13672 6.98354 4.13672C4.66454 4.13672 3.76154 5.03972 3.76154 7.35772C3.76154 9.67772 4.66454 10.5807 6.98354 10.5807Z" fill="black" fill-opacity="0.2"/>
<path fill-rule="evenodd" clip-rule="evenodd" d="M6.98354 10.5807C9.30254 10.5807 10.2055 9.67772 10.2055 7.35772C10.2055 5.03972 9.30254 4.13672 6.98354 4.13672C4.66454 4.13672 3.76154 5.03972 3.76154 7.35772C3.76154 9.67772 4.66454 10.5807 6.98354 10.5807Z" fill="black" fill-opacity="0.2"/>
<path fill-rule="evenodd" clip-rule="evenodd" d="M6.98354 10.5807C9.30254 10.5807 10.2055 9.67772 10.2055 7.35772C10.2055 5.03972 9.30254 4.13672 6.98354 4.13672C4.66454 4.13672 3.76154 5.03972 3.76154 7.35772C3.76154 9.67772 4.66454 10.5807 6.98354 10.5807Z" fill="black" fill-opacity="0.2"/>
<path fill-rule="evenodd" clip-rule="evenodd" d="M6.98354 10.5807C9.30254 10.5807 10.2055 9.67772 10.2055 7.35772C10.2055 5.03972 9.30254 4.13672 6.98354 4.13672C4.66454 4.13672 3.76154 5.03972 3.76154 7.35772C3.76154 9.67772 4.66454 10.5807 6.98354 10.5807Z" fill="black" fill-opacity="0.2"/>
</svg>
