<svg width="32" height="32" viewBox="0 0 32 32" fill="none" xmlns="http://www.w3.org/2000/svg">
<path d="M7.33333 2.66663H22.6667C23.5507 2.66663 24.3986 3.01782 25.0237 3.64294C25.6488 4.26806 26 5.1159 26 5.99996V15.084C24.4807 14.5917 22.8548 14.5288 21.302 14.9023C19.7492 15.2758 18.3298 16.0711 17.2005 17.2004C16.0711 18.3297 15.2758 19.7492 14.9024 21.302C14.5289 22.8548 14.5917 24.4806 15.084 26H6C6 26.3536 6.14048 26.6927 6.39052 26.9428C6.64057 27.1928 6.97971 27.3333 7.33333 27.3333H15.6427C16.0241 28.065 16.5081 28.7385 17.08 29.3333H7.33333C6.44928 29.3333 5.60143 28.9821 4.97631 28.357C4.35119 27.7319 4 26.884 4 26V5.99996C4 5.1159 4.35119 4.26806 4.97631 3.64294C5.60143 3.01782 6.44928 2.66663 7.33333 2.66663ZM9.33333 6.66663C8.97971 6.66663 8.64057 6.8071 8.39052 7.05715C8.14048 7.3072 8 7.64634 8 7.99996V9.33329C8 9.68691 8.14048 10.0261 8.39052 10.2761C8.64057 10.5262 8.97971 10.6666 9.33333 10.6666H20C20.3536 10.6666 20.6928 10.5262 20.9428 10.2761C21.1929 10.0261 21.3333 9.68691 21.3333 9.33329V7.99996C21.3333 7.64634 21.1929 7.3072 20.9428 7.05715C20.6928 6.8071 20.3536 6.66663 20 6.66663H9.33333ZM30.6667 23.3333C30.6667 21.3884 29.8941 19.5231 28.5188 18.1478C27.1435 16.7726 25.2783 16 23.3333 16C21.3884 16 19.5232 16.7726 18.1479 18.1478C16.7726 19.5231 16 21.3884 16 23.3333C16 25.2782 16.7726 27.1435 18.1479 28.5187C19.5232 29.894 21.3884 30.6666 23.3333 30.6666C25.2783 30.6666 27.1435 29.894 28.5188 28.5187C29.8941 27.1435 30.6667 25.2782 30.6667 23.3333ZM22.552 20.1293L26.2933 22.5826C26.4098 22.6573 26.5009 22.7564 26.5667 22.88C26.6333 23.0008 26.6667 23.1333 26.6667 23.2773C26.6668 23.4155 26.6339 23.5517 26.5707 23.6746C26.5096 23.7958 26.4188 23.8995 26.3067 23.976L22.564 26.5293C22.4992 26.5737 22.4282 26.6083 22.3533 26.632C22.1801 26.6874 21.9923 26.6765 21.8267 26.6013C21.7313 26.5563 21.6443 26.4954 21.5693 26.4213C21.4967 26.343 21.4381 26.2528 21.396 26.1546C21.3539 26.0546 21.3326 25.9471 21.3333 25.8386V20.828C21.3323 20.6675 21.378 20.5101 21.4649 20.3752C21.5518 20.2402 21.6761 20.1335 21.8227 20.068C21.9388 20.0132 22.0674 19.99 22.1954 20.0005C22.3233 20.011 22.4463 20.055 22.552 20.128" fill="#169B4C"/>
</svg>
