<svg width="21" height="21" viewBox="0 0 21 21" fill="none" xmlns="http://www.w3.org/2000/svg">
<path fill-rule="evenodd" clip-rule="evenodd" d="M10.2594 7.74978H10.2503C9.82969 7.74978 9.48836 7.40845 9.48836 6.98788C9.48836 6.56731 9.82969 6.22597 10.2503 6.22597C10.6708 6.22597 11.0172 6.56731 11.0172 6.98788C11.0172 7.40845 10.68 7.74978 10.2594 7.74978ZM11.0162 14.5003C11.0162 14.9209 10.6749 15.2622 10.2543 15.2622C9.83375 15.2622 9.49242 14.9209 9.49242 14.5003V10.5435C9.49242 10.1229 9.83375 9.78156 10.2543 9.78156C10.6749 9.78156 11.0162 10.1229 11.0162 10.5435V14.5003ZM10.2543 0.638672C2.94207 0.638672 0.349564 3.23118 0.349564 10.5435C0.349564 17.8557 2.94207 20.4482 10.2543 20.4482C17.5666 20.4482 20.1591 17.8557 20.1591 10.5435C20.1591 3.23118 17.5666 0.638672 10.2543 0.638672Z" fill="#169B4C"/>
</svg>
