<svg width="26" height="26" viewBox="0 0 26 26" fill="none" xmlns="http://www.w3.org/2000/svg">
<path fill-rule="evenodd" clip-rule="evenodd" d="M17.8561 8.06714V8.69698C17.3888 8.5954 16.8809 8.50397 16.3323 8.44301V8.06714C16.3323 6.37063 14.9609 4.97889 13.2644 4.97889H13.2542C11.5577 4.97889 10.1761 6.36048 10.1761 8.04682V8.44301C9.62754 8.50397 9.1196 8.5954 8.6523 8.69698V8.04682C8.6523 5.5173 10.7247 3.45508 13.2542 3.45508H13.2644C15.8041 3.46524 17.8663 5.52746 17.8561 8.06714Z" fill="#169B4C"/>
<path fill-rule="evenodd" clip-rule="evenodd" d="M22.9251 15.9613C22.9251 21.6298 20.3956 23.6311 13.254 23.6311C6.11236 23.6311 3.58284 21.6298 3.58284 15.9613C3.58284 11.7454 4.98474 9.55109 8.65204 8.69776L8.65205 11.146C8.65205 11.5727 8.98729 11.9079 9.41395 11.9079C9.83046 11.9079 10.1759 11.5727 10.1759 11.146L10.1758 8.44379C11.0902 8.33204 12.1162 8.28125 13.254 8.28125C14.3917 8.28125 15.4178 8.33204 16.3321 8.44379V11.146C16.3321 11.5727 16.6775 11.9079 17.094 11.9079C17.5105 11.9079 17.8559 11.5727 17.8559 11.146V8.69776C21.5232 9.55109 22.9251 11.7454 22.9251 15.9613Z" fill="#169B4C"/>
</svg>
