<svg width="32" height="32" viewBox="0 0 32 32" fill="none" xmlns="http://www.w3.org/2000/svg">
<path d="M9.33338 29.3333C8.60005 29.3333 7.97249 29.0724 7.45071 28.5506C6.92893 28.0288 6.6676 27.4008 6.66671 26.6666C6.66582 25.9324 6.92716 25.3048 7.45071 24.784C7.97427 24.2631 8.60182 24.0017 9.33338 24C10.0649 23.9982 10.6929 24.2595 11.2174 24.784C11.7418 25.3084 12.0027 25.936 12 26.6666C11.9974 27.3973 11.7365 28.0253 11.2174 28.5506C10.6983 29.076 10.0703 29.3368 9.33338 29.3333ZM22.6667 29.3333C21.9334 29.3333 21.3058 29.0724 20.784 28.5506C20.2623 28.0288 20.0009 27.4008 20 26.6666C19.9992 25.9324 20.2605 25.3048 20.784 24.784C21.3076 24.2631 21.9352 24.0017 22.6667 24C23.3983 23.9982 24.0263 24.2595 24.5507 24.784C25.0752 25.3084 25.336 25.936 25.3334 26.6666C25.3307 27.3973 25.0698 28.0253 24.5507 28.5506C24.0316 29.076 23.4036 29.3368 22.6667 29.3333ZM6.93338 5.33329H26.6C27.1112 5.33329 27.5 5.56129 27.7667 6.01729C28.0334 6.47329 28.0445 6.93418 27.8 7.39996L23.0667 15.9333C22.8223 16.3777 22.4947 16.7222 22.084 16.9666C21.6734 17.2111 21.2232 17.3333 20.7334 17.3333H10.8L9.33338 20H24C24.3778 20 24.6947 20.128 24.9507 20.384C25.2067 20.64 25.3343 20.9564 25.3334 21.3333C25.3325 21.7102 25.2045 22.0271 24.9494 22.284C24.6943 22.5408 24.3778 22.6684 24 22.6666H9.33338C8.33338 22.6666 7.57782 22.228 7.06671 21.3506C6.5556 20.4733 6.53338 19.6008 7.00005 18.7333L8.80005 15.4666L4.00005 5.33329H2.66671C2.28893 5.33329 1.97249 5.20529 1.71738 4.94929C1.46227 4.69329 1.33427 4.37685 1.33338 3.99996C1.33249 3.62307 1.46049 3.30663 1.71738 3.05063C1.97427 2.79463 2.29071 2.66663 2.66671 2.66663H4.83338C5.07782 2.66663 5.31116 2.73329 5.53338 2.86663C5.7556 2.99996 5.92227 3.18885 6.03338 3.43329L6.93338 5.33329Z" fill="#169B4C"/>
</svg>
