<svg width="26" height="26" viewBox="0 0 26 26" fill="none" xmlns="http://www.w3.org/2000/svg">
<path fill-rule="evenodd" clip-rule="evenodd" d="M10.704 5.74935C10.704 4.88687 11.3013 4.18592 12.0348 4.18592H14.4729C15.2063 4.18592 15.8037 4.88687 15.8037 5.74935V5.77373C15.0255 5.69551 14.1783 5.6569 13.2538 5.6569C12.3284 5.6569 11.4811 5.69551 10.704 5.77373V5.74935ZM3.60914 11.7622C6.25955 13.3958 9.6932 14.2969 13.2741 14.2999C16.848 14.2969 20.2725 13.3988 22.9209 11.7724C22.3845 8.45766 20.6931 6.69411 17.3275 6.0084V5.74935C17.3275 4.04674 16.0465 2.66211 14.4729 2.66211H12.0348C10.4612 2.66211 9.18019 4.04674 9.18019 5.74935V6.0084C5.81968 6.69309 4.12927 8.45157 3.58882 11.7541C3.59593 11.7582 3.60304 11.7582 3.60914 11.7622Z" fill="#169B4C"/>
<path fill-rule="evenodd" clip-rule="evenodd" d="M14.0156 15.8622V18.0596C14.0156 18.4801 13.6743 18.8215 13.2537 18.8215C12.8331 18.8215 12.4918 18.4801 12.4918 18.0596V15.8612C9.17906 15.7505 6.01157 14.9236 3.41398 13.4922C3.39875 13.8163 3.3896 14.1495 3.3896 14.4969C3.3896 21.0249 5.97094 23.338 13.2537 23.338C20.5365 23.338 23.1178 21.0249 23.1178 14.4969C23.1178 14.1576 23.1097 13.8315 23.0955 13.5156C20.4938 14.9388 17.3263 15.7576 14.0156 15.8622Z" fill="#169B4C"/>
</svg>
