<svg width="32" height="32" viewBox="0 0 32 32" fill="none" xmlns="http://www.w3.org/2000/svg">
<path d="M8.51333 26.1107V17.128H11.2867C11.4084 17.128 11.5342 17.1404 11.664 17.1653C11.7938 17.1902 11.9195 17.2249 12.0413 17.2693L20.0693 20.216C20.4658 20.3609 20.7929 20.5991 21.0507 20.9307C21.3075 21.2622 21.436 21.6351 21.436 22.0493C21.436 22.2938 21.356 22.492 21.196 22.644C21.036 22.796 20.8391 22.8716 20.6053 22.8707H19.0027C18.5493 22.8707 18.1071 22.844 17.676 22.7907C17.2449 22.7373 16.8222 22.6369 16.408 22.4893L14.0187 21.6307L13.636 22.6227L16.2547 23.5227C16.6742 23.6649 17.108 23.7627 17.556 23.816C18.004 23.8702 18.4578 23.8973 18.9173 23.8973H25.7947C26.4035 23.8973 26.9235 24.0973 27.3547 24.4973C27.7858 24.8973 28.0009 25.3982 28 26L18.6747 29.0773L8.51333 26.1107ZM3.17999 28V17.128H7.17999V28H3.17999ZM20.9227 16.5133L15.9027 11.7027C15.316 11.1382 14.8267 10.5062 14.4347 9.80667C14.0418 9.10622 13.8453 8.34667 13.8453 7.528C13.8453 6.54489 14.1875 5.71111 14.872 5.02667C15.5564 4.34222 16.3911 4 17.376 4C18.104 4 18.7662 4.19689 19.3627 4.59067C19.9591 4.98444 20.4795 5.46267 20.924 6.02533C21.3684 5.46267 21.8893 4.98444 22.4867 4.59067C23.0822 4.19689 23.7444 4 24.4733 4C25.4564 4 26.2902 4.34222 26.9747 5.02667C27.6591 5.71111 28.0009 6.54489 28 7.528C28 8.34667 27.8053 9.10622 27.416 9.80667C27.0267 10.5071 26.5382 11.1391 25.9507 11.7027L20.9227 16.5133Z" fill="#169B4C"/>
</svg>
