<svg width="80" height="80" viewBox="0 0 80 80" fill="none" xmlns="http://www.w3.org/2000/svg">
<g clip-path="url(#clip0_138_361)">
<path d="M40 0C29.3938 0 19.2125 4.21688 11.7188 11.7156C4.21733 19.2174 0.00214655 29.3911 0 40C0 50.6044 4.21875 60.7856 11.7188 68.2844C19.2125 75.7831 29.3938 80 40 80C50.6063 80 60.7875 75.7831 68.2812 68.2844C75.7812 60.7856 80 50.6044 80 40C80 29.3956 75.7812 19.2144 68.2812 11.7156C60.7875 4.21688 50.6063 0 40 0Z" fill="url(#paint0_linear_138_361)"/>
<path d="M18.1058 39.5775C29.7683 34.4975 37.5433 31.1484 41.4308 29.53C52.5433 24.9094 54.8496 24.1069 56.3558 24.0797C56.6871 24.0744 57.4246 24.1563 57.9058 24.5453C58.3058 24.8735 58.4183 25.3172 58.4746 25.6288C58.5246 25.94 58.5933 26.6494 58.5371 27.2031C57.9371 33.5281 55.3308 48.8769 54.0058 55.9613C53.4496 58.9588 52.3433 59.9638 51.2746 60.0619C48.9496 60.2756 47.1871 58.5269 44.9371 57.0525C41.4183 54.7444 39.4308 53.3081 36.0121 51.0563C32.0621 48.4538 34.6246 47.0231 36.8746 44.6856C37.4621 44.0738 47.6996 34.7644 47.8933 33.92C47.9183 33.8144 47.9433 33.4206 47.7058 33.2131C47.4746 33.005 47.1308 33.0763 46.8808 33.1325C46.5246 33.2125 40.9058 36.93 30.0058 44.2844C28.4121 45.3806 26.9683 45.915 25.6683 45.8869C24.2433 45.8563 21.4933 45.0794 19.4496 44.4156C16.9496 43.6013 14.9558 43.1706 15.1308 41.7875C15.2183 41.0675 16.2121 40.3306 18.1058 39.5775Z" fill="white"/>
</g>
<defs>
<linearGradient id="paint0_linear_138_361" x1="4000" y1="0" x2="4000" y2="8000" gradientUnits="userSpaceOnUse">
<stop stop-color="#2AABEE"/>
<stop offset="1" stop-color="#229ED9"/>
</linearGradient>
<clipPath id="clip0_138_361">
<rect width="80" height="80" fill="white"/>
</clipPath>
</defs>
</svg>
